<svg width="92" height="91" viewBox="0 0 92 91" fill="none" xmlns="http://www.w3.org/2000/svg">
<g filter="url(#filter0_d_1_119)">
<circle cx="46" cy="38" r="38" fill="white"/>
</g>
<path d="M20.6667 21.7661C20.6667 21.2725 20.8628 20.799 21.2119 20.45C21.5609 20.1009 22.0344 19.9048 22.528 19.9048H23.9129C26.2706 19.9048 27.6852 21.4907 28.4918 22.9649C29.0304 23.9476 29.42 25.0868 29.7253 26.1192C29.8078 26.1127 29.8906 26.1094 29.9735 26.1093H60.9911C63.051 26.1093 64.5401 28.0799 63.9742 30.0628L59.4375 45.9687C59.0307 47.3954 58.1702 48.6507 56.9861 49.5445C55.8021 50.4384 54.3591 50.9221 52.8756 50.9224H38.1138C36.6185 50.9225 35.1645 50.4314 33.9754 49.5248C32.7863 48.6182 31.9279 47.3461 31.532 45.9042L29.6459 39.0246L26.5188 28.4819L26.5163 28.4621C26.1291 27.0549 25.7668 25.737 25.2258 24.7542C24.7071 23.7987 24.2901 23.6275 23.9154 23.6275H22.528C22.0344 23.6275 21.5609 23.4314 21.2119 23.0823C20.8628 22.7332 20.6667 22.2598 20.6667 21.7661ZM33.2569 38.1212L35.1207 44.9189C35.493 46.264 36.7165 47.1997 38.1138 47.1997H52.8756C53.5499 47.1997 54.2058 46.98 54.7441 46.5738C55.2824 46.1676 55.6737 45.5971 55.8587 44.9487L60.1696 29.832H30.8049L33.2221 37.9897L33.2569 38.1212ZM41.762 58.3728C41.762 59.6892 41.2391 60.9517 40.3082 61.8826C39.3774 62.8134 38.1149 63.3364 36.7984 63.3364C35.482 63.3364 34.2195 62.8134 33.2886 61.8826C32.3578 60.9517 31.8348 59.6892 31.8348 58.3728C31.8348 57.0563 32.3578 55.7938 33.2886 54.863C34.2195 53.9321 35.482 53.4092 36.7984 53.4092C38.1149 53.4092 39.3774 53.9321 40.3082 54.863C41.2391 55.7938 41.762 57.0563 41.762 58.3728ZM38.0393 58.3728C38.0393 58.0437 37.9086 57.728 37.6759 57.4953C37.4432 57.2626 37.1275 57.1319 36.7984 57.1319C36.4693 57.1319 36.1537 57.2626 35.921 57.4953C35.6883 57.728 35.5575 58.0437 35.5575 58.3728C35.5575 58.7019 35.6883 59.0175 35.921 59.2502C36.1537 59.4829 36.4693 59.6137 36.7984 59.6137C37.1275 59.6137 37.4432 59.4829 37.6759 59.2502C37.9086 59.0175 38.0393 58.7019 38.0393 58.3728ZM59.1347 58.3728C59.1347 59.6892 58.6117 60.9517 57.6809 61.8826C56.75 62.8134 55.4875 63.3364 54.1711 63.3364C52.8546 63.3364 51.5921 62.8134 50.6613 61.8826C49.7304 60.9517 49.2075 59.6892 49.2075 58.3728C49.2075 57.0563 49.7304 55.7938 50.6613 54.863C51.5921 53.9321 52.8546 53.4092 54.1711 53.4092C55.4875 53.4092 56.75 53.9321 57.6809 54.863C58.6117 55.7938 59.1347 57.0563 59.1347 58.3728ZM55.412 58.3728C55.412 58.0437 55.2812 57.728 55.0485 57.4953C54.8158 57.2626 54.5002 57.1319 54.1711 57.1319C53.842 57.1319 53.5263 57.2626 53.2936 57.4953C53.0609 57.728 52.9302 58.0437 52.9302 58.3728C52.9302 58.7019 53.0609 59.0175 53.2936 59.2502C53.5263 59.4829 53.842 59.6137 54.1711 59.6137C54.5002 59.6137 54.8158 59.4829 55.0485 59.2502C55.2812 59.0175 55.412 58.7019 55.412 58.3728Z" fill="#435BDA"/>
<circle cx="45.5" cy="38.5" r="7.5" fill="#435BDA"/>
<path d="M44.3472 35.6752V34.9696H46.2512V43H45.456V35.6752H44.3472Z" fill="white"/>
<defs>
<filter id="filter0_d_1_119" x="0.761905" y="0" width="90.4762" height="90.4762" filterUnits="userSpaceOnUse" color-interpolation-filters="sRGB">
<feFlood flood-opacity="0" result="BackgroundImageFix"/>
<feColorMatrix in="SourceAlpha" type="matrix" values="0 0 0 0 0 0 0 0 0 0 0 0 0 0 0 0 0 0 127 0" result="hardAlpha"/>
<feOffset dy="7.2381"/>
<feGaussianBlur stdDeviation="3.61905"/>
<feComposite in2="hardAlpha" operator="out"/>
<feColorMatrix type="matrix" values="0 0 0 0 0 0 0 0 0 0 0 0 0 0 0 0 0 0 0.25 0"/>
<feBlend mode="normal" in2="BackgroundImageFix" result="effect1_dropShadow_1_119"/>
<feBlend mode="normal" in="SourceGraphic" in2="effect1_dropShadow_1_119" result="shape"/>
</filter>
</defs>
</svg>
