<svg width="19" height="19" viewBox="0 0 19 19" fill="none" xmlns="http://www.w3.org/2000/svg">
<path fill-rule="evenodd" clip-rule="evenodd" d="M9.5 0C4.25335 0 0 4.25335 0 9.5C0 14.7467 4.25335 19 9.5 19C14.7467 19 19 14.7467 19 9.5C19 4.25335 14.7467 0 9.5 0ZM1.32558 9.5C1.32558 7.48158 2.0573 5.63372 3.26977 4.2074L6.10033 7.03707C5.58032 7.75288 5.30091 8.61525 5.30233 9.5C5.30097 10.3847 5.58038 11.2471 6.10033 11.9629L3.26977 14.7926C2.01201 13.3163 1.32258 11.4395 1.32558 9.5ZM7.03707 6.10033L4.2074 3.26977C5.68372 2.01201 7.56055 1.32258 9.5 1.32558C11.5184 1.32558 13.3663 2.0573 14.7926 3.26977L11.962 6.10033C11.2465 5.58044 10.3845 5.30103 9.5 5.30233C8.61525 5.30091 7.75288 5.58032 7.03707 6.10033ZM4.2074 15.7302C5.68372 16.988 7.56055 17.6774 9.5 17.6744C11.4395 17.6774 13.3163 16.988 14.7926 15.7302L11.962 12.8997C11.2465 13.4196 10.3845 13.699 9.5 13.6977C8.61525 13.6991 7.75288 13.4197 7.03707 12.8997L4.2074 15.7302ZM12.8997 11.962L15.7302 14.7926C16.988 13.3163 17.6774 11.4395 17.6744 9.5C17.6774 7.56055 16.988 5.68372 15.7302 4.2074L12.8997 7.03707C13.4196 7.75291 13.699 8.61526 13.6977 9.5C13.6992 10.3848 13.4197 11.2463 12.8997 11.962ZM6.62791 9.5C6.62791 8.73827 6.9305 8.00775 7.46912 7.46912C8.00775 6.9305 8.73827 6.62791 9.5 6.62791C10.2617 6.62791 10.9923 6.9305 11.5309 7.46912C12.0695 8.00775 12.3721 8.73827 12.3721 9.5C12.3721 10.2617 12.0695 10.9923 11.5309 11.5309C10.9923 12.0695 10.2617 12.3721 9.5 12.3721C8.73827 12.3721 8.00775 12.0695 7.46912 11.5309C6.9305 10.9923 6.62791 10.2617 6.62791 9.5Z" fill="black"/>
</svg>
