<svg width="54" height="43" viewBox="0 0 54 43" fill="none" xmlns="http://www.w3.org/2000/svg">
<path d="M13.8079 35.9014H4.36268C1.45423 35.9014 0 34.4472 0 31.5387V5.36268C0 2.45423 1.45423 1 4.36268 1H19.6321C22.5405 1 23.9947 2.45423 23.9947 5.36268V31.5387C23.9947 33.0802 23.5875 34.2145 22.7732 34.9416L24.5401 40.2641H15.2694L13.8079 35.9014ZM15.2694 27.1761V9.72536H8.72536V27.1761H15.2694Z" fill="#435BDA"/>
<path d="M27.3348 33.3407L26.7439 33.3112V32.7195V30.2317V29.5772L27.3975 29.6106L38.4779 30.1759L37.6751 28.704L15.1151 26.4971L14.6858 26.4551L14.5747 26.0383L10.5942 11.1115L10.3856 10.3293H11.1951H41.3281L43.9393 1.33874L44.0696 0.890255H44.5366H52H52.622V1.51221V4.00001V4.62196H52H47.0021L40.9649 26.8074L44.0929 33.0633L44.1585 33.1947V33.3415V37.0732C44.1585 39.4069 42.1386 41.4268 39.8049 41.4268C37.4711 41.4268 35.4512 39.4069 35.4512 37.0732C35.4512 35.8059 36.0468 34.6312 36.9648 33.8222L27.3348 33.3407Z" fill="#435BDA" stroke="white" stroke-width="1.2439"/>
<rect x="17.5414" y="29.6097" width="24.3809" height="2.68976" transform="rotate(2.70165 17.5414 29.6097)" fill="#435BDA"/>
</svg>
