<svg width="15" height="19" viewBox="0 0 15 19" fill="none" xmlns="http://www.w3.org/2000/svg">
<path d="M0.75 15.8333C0.75 14.2868 1.19418 12.8351 1.94441 11.7933C2.6922 10.7548 3.64434 10.25 4.56067 10.25H10.2171C11.1334 10.25 12.0856 10.7548 12.8334 11.7933C13.5836 12.8351 14.0278 14.2868 14.0278 15.8333C14.0278 16.54 13.8238 17.1863 13.5013 17.6342C13.1811 18.0788 12.809 18.25 12.4974 18.25H2.28034C1.96879 18.25 1.59666 18.0788 1.27652 17.6342C0.953934 17.1863 0.75 16.54 0.75 15.8333Z" stroke="black" stroke-width="1.5" stroke-linejoin="round"/>
<path d="M11 4C11 6.20914 9.20914 8 7 8C4.79086 8 3 6.20914 3 4C3 1.79086 4.79086 0 7 0C9.20914 0 11 1.79086 11 4ZM4.49522 4C4.49522 5.38335 5.61665 6.50478 7 6.50478C8.38335 6.50478 9.50478 5.38335 9.50478 4C9.50478 2.61665 8.38335 1.49522 7 1.49522C5.61665 1.49522 4.49522 2.61665 4.49522 4Z" fill="black"/>
</svg>
